<?xml version="1.0" encoding="UTF-8" standalone="no"?>
<!-- Created with Inkscape (http://www.inkscape.org/) -->

<svg
   width="32mm"
   height="32mm"
   viewBox="0 0 32 32"
   version="1.1"
   id="svg5"
   inkscape:version="1.1.2 (0a00cf5339, 2022-02-04)"
   sodipodi:docname="files-to-epub.svg"
   xmlns:inkscape="http://www.inkscape.org/namespaces/inkscape"
   xmlns:sodipodi="http://sodipodi.sourceforge.net/DTD/sodipodi-0.dtd"
   xmlns:xlink="http://www.w3.org/1999/xlink"
   xmlns="http://www.w3.org/2000/svg"
   xmlns:svg="http://www.w3.org/2000/svg">
  <sodipodi:namedview
     id="namedview7"
     pagecolor="#ffffff"
     bordercolor="#666666"
     borderopacity="1.0"
     inkscape:pageshadow="2"
     inkscape:pageopacity="0.0"
     inkscape:pagecheckerboard="0"
     inkscape:document-units="px"
     showgrid="false"
     inkscape:zoom="1.3102506"
     inkscape:cx="6.1057021"
     inkscape:cy="32.054936"
     inkscape:window-width="1366"
     inkscape:window-height="696"
     inkscape:window-x="0"
     inkscape:window-y="0"
     inkscape:window-maximized="1"
     inkscape:current-layer="layer1"
     inkscape:snap-global="false" />
  <defs
     id="defs2">
    <linearGradient
       inkscape:collect="always"
       id="linearGradient2317">
      <stop
         style="stop-color:#8080ff;stop-opacity:1"
         offset="0"
         id="stop2313" />
      <stop
         style="stop-color:#000080;stop-opacity:1"
         offset="1"
         id="stop2315" />
    </linearGradient>
    <radialGradient
       inkscape:collect="always"
       xlink:href="#linearGradient2317"
       id="radialGradient2319"
       cx="7.3546243"
       cy="7.3717651"
       fx="7.3546243"
       fy="7.3717651"
       r="13.739549"
       gradientTransform="matrix(0.41250794,0.63756591,-0.82702959,0.53509209,15.051378,1.2383026)"
       gradientUnits="userSpaceOnUse" />
    <filter
       style="color-interpolation-filters:sRGB;"
       inkscape:label="Blur"
       id="filter16557"
       x="-0.60550481"
       y="-1.3882284"
       width="2.2110096"
       height="3.7764569">
      <feGaussianBlur
         stdDeviation="0.804281 1.11884"
         result="blur"
         id="feGaussianBlur16555" />
    </filter>
  </defs>
  <g
     inkscape:label="Layer 1"
     inkscape:groupmode="layer"
     id="layer1">
    <path
       id="rect22144-9"
       style="fill:#666666;stroke:#161650;stroke-width:0.79375;stroke-linejoin:bevel;stroke-miterlimit:4;stroke-dasharray:none"
       d="m 5.4271776,26.330864 c 0,0 -0.8220898,1.737005 -1.8809491,1.519219 C 2.4873682,27.6323 1.1982088,25.525947 1.1982088,25.525947 l 0.4164388,-1.906619 c 0,0 1.2891605,2.10635 2.3480197,2.324136 1.0588604,0.217783 1.8809491,-1.51922 1.8809491,-1.51922 z m 0,-4.811481 c 0,0 -0.8220898,1.737005 -1.8809491,1.519219 C 2.4873682,22.820819 1.1982088,20.714466 1.1982088,20.714466 l 0.4164388,-1.906619 c 0,0 1.2891605,2.10635 2.3480197,2.324136 1.0588604,0.217783 1.8809491,-1.51922 1.8809491,-1.51922 z m 0,-4.81148 c 0,0 -0.8220898,1.737005 -1.8809491,1.519219 C 2.4873682,18.009339 1.1982088,15.902986 1.1982088,15.902986 l 0.4164388,-1.906619 c 0,0 1.2891605,2.10635 2.3480197,2.324136 1.0588604,0.217783 1.8809491,-1.51922 1.8809491,-1.51922 z m 0,-4.811481 c 0,0 -0.8220898,1.737005 -1.8809491,1.519219 C 2.4873682,13.197858 1.1982088,11.091505 1.1982088,11.091505 L 1.6146476,9.1848865 c 0,0 1.2891605,2.1063495 2.3480197,2.3241355 1.0588604,0.217783 1.8809491,-1.5192195 1.8809491,-1.5192195 z m 0.098526,-3.9656013 c 0,0 -0.8220898,1.737005 -1.8809491,1.519219 C 2.5858937,9.2322567 1.2967343,7.1259037 1.2967343,7.1259037 l 0.4164388,-1.906619 c 0,0 1.2891605,2.10635 2.3480197,2.324136 1.0588604,0.217783 1.8809491,-1.51922 1.8809491,-1.51922 z" />
    <rect
       style="fill:#dbe2e3;stroke:#161650;stroke-width:0.79375;stroke-miterlimit:4;stroke-dasharray:none"
       id="rect19859"
       width="23.493275"
       height="25.694441"
       x="7.3182359"
       y="5.0313783"
       ry="1.6548011" />
    <rect
       style="fill:#dbe2e3;stroke:#161650;stroke-width:0.79375;stroke-miterlimit:4;stroke-dasharray:none"
       id="rect19859-3"
       width="23.493275"
       height="25.694441"
       x="6.0170126"
       y="3.9894633"
       ry="1.5020219" />
    <path
       id="rect236"
       style="fill:url(#radialGradient2319);stroke:#161650;stroke-width:1.32292"
       d="M 5.9231339,2.6410508 H 22.320562 l 2.373146,3.2001741 3.392677,2.6141341 v 17.763823 c 0,1.200477 -0.966449,2.166926 -2.166926,2.166926 H 5.9231339 c -1.2004772,0 -2.1669264,-0.966449 -2.1669264,-2.166926 V 4.8079771 c 0,-1.2004772 0.9664492,-2.1669263 2.1669264,-2.1669263 z"
       sodipodi:nodetypes="scccssssss" />
    <ellipse
       style="fill:#ffffff;fill-opacity:1;stroke:none;stroke-width:0.899826;stroke-miterlimit:4;stroke-dasharray:none;stroke-opacity:1;filter:url(#filter16557)"
       id="path1002"
       cx="7.6806893"
       cy="5.7211933"
       rx="1.5939381"
       ry="0.96713763" />
    <text
       xml:space="preserve"
       style="font-style:normal;font-weight:normal;font-size:8.16057px;line-height:1.25;font-family:sans-serif;fill:#000000;fill-opacity:1;stroke:none;stroke-width:0.204015"
       x="6.7012582"
       y="18.942427"
       id="text11349"
       transform="scale(1.0144134,0.9857914)"><tspan
         sodipodi:role="line"
         id="tspan11347"
         style="font-style:normal;font-variant:normal;font-weight:normal;font-stretch:normal;font-family:'Liberation Mono';-inkscape-font-specification:'Liberation Mono';fill:#dbe2e3;stroke-width:0.204015"
         x="6.7012582"
         y="18.942427">EPUB</tspan></text>
    <path
       style="fill:#dbdee3;stroke:#161650;stroke-width:1.05833;stroke-linecap:butt;stroke-linejoin:bevel;stroke-miterlimit:4;stroke-dasharray:none;stroke-opacity:1"
       d="m 22.396119,2.4805841 6.004892,5.8625068 -6.236048,-1.668606 z"
       id="path20624"
       sodipodi:nodetypes="cccc" />
    <path
       id="rect23431-62"
       style="fill:#1a1a1a;stroke-width:1.31158;stroke-linejoin:bevel"
       d="m 4.95594,22.699765 h 1.6584722 v 2.998804 H 4.95594 Z m 0,-4.353119 H 6.6144122 V 21.34545 H 4.95594 Z m 0,-4.353113 h 1.6584722 v 2.998805 H 4.95594 Z m 0,-4.353116 h 1.6584722 v 2.998805 H 4.95594 Z m 0,-4.3531155 H 6.6144122 V 8.2861058 H 4.95594 Z" />
    <path
       id="rect22144-2-0"
       style="fill:#b7bec8;stroke:#161650;stroke-width:0.79375;stroke-linecap:butt;stroke-linejoin:bevel;stroke-miterlimit:4;stroke-dasharray:none"
       d="m 1.3492872,5.4218889 c 0,0 0.432501,-1.872421 1.5134453,-1.885598 1.0809442,-0.01318 2.7898793,1.769569 2.7898793,1.769569 v 1.951568 c 0,0 -1.7089351,-1.782746 -2.7898793,-1.769569 -1.0809443,0.01318 -1.5134453,1.885598 -1.5134453,1.885598 z m 0,3.9980766 c 0,0 0.432501,-1.872421 1.5134453,-1.885598 1.0809442,-0.01318 2.7898793,1.769569 2.7898793,1.769569 v 1.9515675 c 0,0 -1.7089351,-1.7827455 -2.7898793,-1.7695685 -1.0809443,0.01318 -1.5134453,1.8855975 -1.5134453,1.8855975 z m 0,4.6963765 c 0,0 0.432501,-1.872421 1.5134452,-1.885598 1.0809442,-0.01318 2.7898794,1.769569 2.7898794,1.769569 v 1.951568 c 0,0 -1.7089352,-1.782746 -2.7898794,-1.769569 -1.0809442,0.01318 -1.5134452,1.885598 -1.5134452,1.885598 z m 0,4.696376 c 0,0 0.432501,-1.872421 1.5134452,-1.885598 1.0809442,-0.01318 2.7898794,1.769569 2.7898794,1.769569 v 1.951568 c 0,0 -1.7089352,-1.782746 -2.7898794,-1.769569 -1.0809442,0.01318 -1.5134452,1.885598 -1.5134452,1.885598 z m 0,4.696376 c 0,0 0.432501,-1.872421 1.5134452,-1.885598 1.0809442,-0.01318 2.7898794,1.769569 2.7898794,1.769569 v 1.951568 c 0,0 -1.7089352,-1.782746 -2.7898794,-1.769569 -1.0809442,0.01318 -1.5134452,1.885598 -1.5134452,1.885598 z" />
  </g>
</svg>
